<svg width="363" height="360" viewBox="0 0 363 360" fill="none" xmlns="http://www.w3.org/2000/svg">
<g filter="url(#filter0_d_1_39)">
<circle cx="180" cy="176" r="176" fill="#C4C4C4"/>
<circle cx="180" cy="176" r="175.5" stroke="#B32222" stroke-opacity="0.73"/>
</g>
<path d="M97.7299 174L25 210.63L66.781 223.205C57.4963 230.859 49.7591 259.836 84.8345 259.836C120.975 259.836 42.0219 307.947 114.752 293.186C172.936 281.376 258.664 266.032 294.255 259.836C230.638 269.312 120.529 284.001 189.029 266.943C274.654 245.621 400.513 225.392 309.214 237.42C217.915 249.448 63.6861 276.784 174.586 253.822C285.487 230.859 59.0438 267.49 145.701 250.541C232.358 233.593 124.552 247.261 120.942 245.074C118.053 243.324 115.955 202.976 112.689 187.668C104.607 184.388 99.7932 177.936 97.7299 174Z" fill="#FFEAEA"/>
<path d="M80.2498 224.322L90.209 252.167C71.1897 260.318 64.4214 249.517 64.1254 245.646C62.4952 224.322 79.3013 224.322 80.2498 224.322Z" fill="#F55E2E"/>
<path d="M75.4784 216.839C71.3615 221.273 66.8331 249.356 84.5353 253.051C98.6972 256.007 92.9062 225.954 88.2405 210.927C84.212 211.891 82.8886 205.015 75.5105 216.687C75.4962 216.738 75.5033 216.812 75.4784 216.839Z" fill="#FFEAEA"/>
<ellipse cx="93.5" cy="186" rx="13.5" ry="11" fill="#FFEAEA"/>
<path d="M100.534 150.006C101.258 152.723 103.903 158.483 108.685 159.787C113.467 161.092 110.859 131.53 100.534 150.006Z" fill="#EC3636"/>
<path d="M108.685 157.308C110.04 162.502 114.985 173.516 123.928 176.009C132.871 178.503 127.993 121.982 108.685 157.308Z" fill="#EC3636"/>
<path d="M118.128 158.497C118.717 166.528 123.025 184.117 135.542 190.222C148.058 196.326 156.196 111.621 118.128 158.497Z" fill="#EC3636"/>
<path d="M64 137C71.4082 89.5 242.923 52.3196 274.984 56.2128L265.269 78.5983C210.862 88.6555 94.0063 116.144 99.447 147.289C104.888 178.434 234.179 193.77 293.444 197.339L265.269 230.43C177.182 221.022 55.5 191.5 64 137Z" fill="#EC3636" stroke="black"/>
<path d="M72.5 191L34.2379 210.324H67.9293L72.5 191Z" fill="#E2C662"/>
<path d="M34.2379 210.324L74.4502 222.279L67.9293 210.324H34.2379Z" fill="#E2C662"/>
<path d="M34.2379 210.324L72.5 191L67.9293 210.324M34.2379 210.324L74.4502 222.279L67.9293 210.324M34.2379 210.324H67.9293" stroke="#BB822C"/>
<g filter="url(#filter1_bd_1_39)">
<path d="M191.562 143.466C193.003 141.697 194.878 140.812 197.187 140.812C201.206 140.812 203.234 143.079 203.269 147.615V160.183H200.017V147.597C200.005 146.226 199.689 145.212 199.068 144.556C198.458 143.9 197.503 143.572 196.202 143.572C195.148 143.572 194.222 143.853 193.425 144.415C192.628 144.978 192.007 145.716 191.562 146.63V160.183H188.31V133.183H191.562V143.466ZM211.671 160.183H208.419V141.163H211.671V160.183ZM208.156 136.118C208.156 135.591 208.314 135.146 208.63 134.783C208.958 134.419 209.439 134.238 210.072 134.238C210.704 134.238 211.185 134.419 211.513 134.783C211.841 135.146 212.005 135.591 212.005 136.118C212.005 136.646 211.841 137.085 211.513 137.437C211.185 137.788 210.704 137.964 210.072 137.964C209.439 137.964 208.958 137.788 208.63 137.437C208.314 137.085 208.156 136.646 208.156 136.118ZM224.521 157.88C225.681 157.88 226.695 157.529 227.562 156.826C228.429 156.122 228.909 155.243 229.003 154.189H232.079C232.021 155.279 231.646 156.316 230.954 157.3C230.263 158.284 229.337 159.07 228.177 159.656C227.029 160.242 225.81 160.534 224.521 160.534C221.931 160.534 219.868 159.673 218.333 157.951C216.81 156.216 216.048 153.849 216.048 150.849V150.304C216.048 148.452 216.388 146.806 217.068 145.365C217.747 143.923 218.72 142.804 219.986 142.007C221.263 141.21 222.769 140.812 224.503 140.812C226.636 140.812 228.406 141.451 229.812 142.728C231.23 144.005 231.986 145.663 232.079 147.702H229.003C228.909 146.472 228.441 145.464 227.597 144.679C226.765 143.882 225.734 143.484 224.503 143.484C222.851 143.484 221.568 144.081 220.654 145.277C219.751 146.46 219.3 148.177 219.3 150.427V151.042C219.3 153.234 219.751 154.921 220.654 156.105C221.556 157.288 222.845 157.88 224.521 157.88ZM241.044 151.376L239.005 153.503V160.183H235.753V133.183H239.005V149.513L240.745 147.421L246.669 141.163H250.624L243.224 149.109L251.486 160.183H247.671L241.044 151.376ZM265.724 160.183C265.536 159.808 265.384 159.14 265.267 158.179C263.755 159.749 261.95 160.534 259.853 160.534C257.978 160.534 256.437 160.007 255.23 158.952C254.034 157.886 253.437 156.538 253.437 154.909C253.437 152.929 254.187 151.394 255.687 150.304C257.198 149.202 259.32 148.652 262.05 148.652H265.214V147.158C265.214 146.021 264.874 145.118 264.195 144.451C263.515 143.771 262.513 143.431 261.189 143.431C260.029 143.431 259.056 143.724 258.271 144.31C257.486 144.896 257.093 145.605 257.093 146.437H253.823C253.823 145.488 254.157 144.574 254.825 143.695C255.505 142.804 256.419 142.101 257.568 141.585C258.728 141.07 259.999 140.812 261.382 140.812C263.573 140.812 265.29 141.363 266.532 142.464C267.775 143.554 268.419 145.06 268.466 146.982V155.736C268.466 157.482 268.689 158.87 269.134 159.902V160.183H265.724ZM260.327 157.704C261.347 157.704 262.314 157.441 263.228 156.913C264.142 156.386 264.804 155.701 265.214 154.857V150.954H262.665C258.681 150.954 256.689 152.12 256.689 154.452C256.689 155.472 257.029 156.269 257.708 156.843C258.388 157.417 259.261 157.704 260.327 157.704ZM277.976 136.558V141.163H281.527V143.677H277.976V155.472C277.976 156.234 278.134 156.808 278.45 157.195C278.767 157.57 279.306 157.757 280.068 157.757C280.443 157.757 280.958 157.687 281.615 157.546V160.183C280.759 160.417 279.927 160.534 279.118 160.534C277.665 160.534 276.57 160.095 275.831 159.216C275.093 158.337 274.724 157.089 274.724 155.472V143.677H271.261V141.163H274.724V136.558H277.976ZM284.128 150.497C284.128 148.634 284.491 146.958 285.218 145.47C285.956 143.982 286.976 142.833 288.277 142.025C289.589 141.216 291.083 140.812 292.759 140.812C295.349 140.812 297.441 141.708 299.034 143.501C300.64 145.294 301.443 147.679 301.443 150.656V150.884C301.443 152.736 301.085 154.4 300.37 155.876C299.667 157.341 298.654 158.484 297.329 159.304C296.017 160.124 294.505 160.534 292.794 160.534C290.216 160.534 288.124 159.638 286.519 157.845C284.925 156.052 284.128 153.679 284.128 150.726V150.497ZM287.398 150.884C287.398 152.993 287.884 154.687 288.857 155.964C289.841 157.242 291.154 157.88 292.794 157.88C294.447 157.88 295.759 157.236 296.732 155.947C297.704 154.646 298.191 152.829 298.191 150.497C298.191 148.411 297.693 146.724 296.697 145.435C295.712 144.134 294.4 143.484 292.759 143.484C291.154 143.484 289.859 144.122 288.874 145.4C287.89 146.677 287.398 148.505 287.398 150.884ZM308.597 141.163L308.702 143.554C310.156 141.726 312.054 140.812 314.398 140.812C318.417 140.812 320.445 143.079 320.48 147.615V160.183H317.228V147.597C317.216 146.226 316.9 145.212 316.279 144.556C315.669 143.9 314.714 143.572 313.413 143.572C312.359 143.572 311.433 143.853 310.636 144.415C309.839 144.978 309.218 145.716 308.773 146.63V160.183H305.521V141.163H308.597Z" fill="black"/>
<path d="M191.562 143.466H190.562V146.277L192.337 144.098L191.562 143.466ZM203.269 147.615L204.269 147.615L204.269 147.607L203.269 147.615ZM203.269 160.183V161.183H204.269V160.183H203.269ZM200.017 160.183H199.017V161.183H200.017V160.183ZM200.017 147.597H201.017L201.017 147.588L200.017 147.597ZM199.068 144.556L198.335 145.236L198.341 145.243L199.068 144.556ZM191.562 146.63L190.663 146.192L190.562 146.4V146.63H191.562ZM191.562 160.183V161.183H192.562V160.183H191.562ZM188.31 160.183H187.31V161.183H188.31V160.183ZM188.31 133.183V132.183H187.31V133.183H188.31ZM191.562 133.183H192.562V132.183H191.562V133.183ZM192.337 144.098C193.586 142.564 195.175 141.812 197.187 141.812V139.812C194.582 139.812 192.42 140.829 190.786 142.835L192.337 144.098ZM197.187 141.812C199.008 141.812 200.208 142.32 200.976 143.179C201.764 144.06 202.252 145.482 202.269 147.622L204.269 147.607C204.25 145.212 203.707 143.232 202.467 141.846C201.208 140.437 199.385 139.812 197.187 139.812V141.812ZM202.269 147.615V160.183H204.269V147.615H202.269ZM203.269 159.183H200.017V161.183H203.269V159.183ZM201.017 160.183V147.597H199.017V160.183H201.017ZM201.017 147.588C201.004 146.092 200.66 144.784 199.794 143.869L198.341 145.243C198.717 145.641 199.006 146.36 199.017 147.606L201.017 147.588ZM199.8 143.876C198.93 142.938 197.654 142.572 196.202 142.572V144.572C197.353 144.572 197.987 144.862 198.335 145.236L199.8 143.876ZM196.202 142.572C194.959 142.572 193.828 142.907 192.848 143.598L194.002 145.232C194.616 144.799 195.337 144.572 196.202 144.572V142.572ZM192.848 143.598C191.908 144.262 191.179 145.133 190.663 146.192L192.461 147.068C192.836 146.299 193.348 145.693 194.002 145.232L192.848 143.598ZM190.562 146.63V160.183H192.562V146.63H190.562ZM191.562 159.183H188.31V161.183H191.562V159.183ZM189.31 160.183V133.183H187.31V160.183H189.31ZM188.31 134.183H191.562V132.183H188.31V134.183ZM190.562 133.183V143.466H192.562V133.183H190.562ZM211.671 160.183V161.183H212.671V160.183H211.671ZM208.419 160.183H207.419V161.183H208.419V160.183ZM208.419 141.163V140.163H207.419V141.163H208.419ZM211.671 141.163H212.671V140.163H211.671V141.163ZM208.63 134.783L207.888 134.112L207.882 134.119L207.876 134.126L208.63 134.783ZM208.63 137.437L207.887 138.106L207.893 138.113L207.899 138.119L208.63 137.437ZM211.671 159.183H208.419V161.183H211.671V159.183ZM209.419 160.183V141.163H207.419V160.183H209.419ZM208.419 142.163H211.671V140.163H208.419V142.163ZM210.671 141.163V160.183H212.671V141.163H210.671ZM209.156 136.118C209.156 135.808 209.242 135.603 209.384 135.439L207.876 134.126C207.386 134.689 207.156 135.374 207.156 136.118H209.156ZM209.372 135.453C209.459 135.357 209.634 135.238 210.072 135.238V133.238C209.244 133.238 208.458 133.482 207.888 134.112L209.372 135.453ZM210.072 135.238C210.509 135.238 210.684 135.357 210.771 135.453L212.255 134.112C211.685 133.482 210.899 133.238 210.072 133.238V135.238ZM210.771 135.453C210.92 135.617 211.005 135.818 211.005 136.118H213.005C213.005 135.364 212.763 134.674 212.255 134.112L210.771 135.453ZM211.005 136.118C211.005 136.419 210.92 136.607 210.782 136.755L212.244 138.119C212.762 137.564 213.005 136.872 213.005 136.118H211.005ZM210.782 136.755C210.698 136.845 210.519 136.964 210.072 136.964V138.964C210.89 138.964 211.672 138.732 212.244 138.119L210.782 136.755ZM210.072 136.964C209.624 136.964 209.445 136.845 209.361 136.755L207.899 138.119C208.471 138.732 209.253 138.964 210.072 138.964V136.964ZM209.373 136.768C209.242 136.621 209.156 136.429 209.156 136.118H207.156C207.156 136.862 207.386 137.549 207.887 138.106L209.373 136.768ZM229.003 154.189V153.189H228.088L228.007 154.1L229.003 154.189ZM232.079 154.189L233.078 154.242L233.135 153.189H232.079V154.189ZM228.177 159.656L227.726 158.763L227.723 158.765L228.177 159.656ZM218.333 157.951L217.582 158.61L217.587 158.616L218.333 157.951ZM219.986 142.007L219.456 141.159L219.453 141.161L219.986 142.007ZM229.812 142.728L229.139 143.468L229.142 143.471L229.812 142.728ZM232.079 147.702V148.702H233.126L233.078 147.657L232.079 147.702ZM229.003 147.702L228.006 147.778L228.076 148.702H229.003V147.702ZM227.597 144.679L226.905 145.401L226.91 145.406L226.916 145.411L227.597 144.679ZM220.654 145.277L219.859 144.669L219.858 144.67L220.654 145.277ZM224.521 158.88C225.901 158.88 227.139 158.456 228.192 157.602L226.932 156.049C226.25 156.601 225.461 156.88 224.521 156.88V158.88ZM228.192 157.602C229.256 156.739 229.88 155.617 229.999 154.277L228.007 154.1C227.939 154.869 227.602 155.506 226.932 156.049L228.192 157.602ZM229.003 155.189H232.079V153.189H229.003V155.189ZM231.081 154.135C231.033 155.019 230.731 155.878 230.136 156.725L231.773 157.875C232.56 156.753 233.008 155.538 233.078 154.242L231.081 154.135ZM230.136 156.725C229.547 157.564 228.752 158.245 227.726 158.763L228.628 160.548C229.923 159.894 230.979 159.004 231.773 157.875L230.136 156.725ZM227.723 158.765C226.715 159.279 225.652 159.534 224.521 159.534V161.534C225.968 161.534 227.342 161.204 228.631 160.546L227.723 158.765ZM224.521 159.534C222.177 159.534 220.401 158.768 219.08 157.285L217.587 158.616C219.336 160.579 221.685 161.534 224.521 161.534V159.534ZM219.085 157.291C217.765 155.788 217.048 153.68 217.048 150.849H215.048C215.048 154.017 215.855 156.645 217.582 158.61L219.085 157.291ZM217.048 150.849V150.304H215.048V150.849H217.048ZM217.048 150.304C217.048 148.576 217.365 147.079 217.972 145.791L216.163 144.938C215.411 146.533 215.048 148.329 215.048 150.304H217.048ZM217.972 145.791C218.576 144.51 219.425 143.542 220.518 142.853L219.453 141.161C218.015 142.066 216.919 143.336 216.163 144.938L217.972 145.791ZM220.515 142.856C221.611 142.172 222.927 141.812 224.503 141.812V139.812C222.611 139.812 220.915 140.248 219.456 141.159L220.515 142.856ZM224.503 141.812C226.42 141.812 227.94 142.379 229.139 143.468L230.484 141.988C228.871 140.522 226.852 139.812 224.503 139.812V141.812ZM229.142 143.471C230.347 144.556 230.998 145.956 231.08 147.748L233.078 147.657C232.973 145.371 232.113 143.454 230.481 141.985L229.142 143.471ZM232.079 146.702H229.003V148.702H232.079V146.702ZM230 147.626C229.889 146.165 229.32 144.916 228.278 143.947L226.916 145.411C227.562 146.012 227.93 146.779 228.006 147.778L230 147.626ZM228.289 143.957C227.257 142.969 225.972 142.484 224.503 142.484V144.484C225.495 144.484 226.273 144.796 226.905 145.401L228.289 143.957ZM224.503 142.484C222.575 142.484 220.983 143.2 219.859 144.669L221.448 145.884C222.152 144.963 223.127 144.484 224.503 144.484V142.484ZM219.858 144.67C218.771 146.097 218.3 148.064 218.3 150.427H220.3C220.3 148.29 220.732 146.823 221.449 145.883L219.858 144.67ZM218.3 150.427V151.042H220.3V150.427H218.3ZM218.3 151.042C218.3 153.353 218.773 155.288 219.858 156.711L221.449 155.499C220.729 154.554 220.3 153.114 220.3 151.042H218.3ZM219.858 156.711C220.975 158.176 222.578 158.88 224.521 158.88V156.88C223.112 156.88 222.136 156.4 221.449 155.499L219.858 156.711ZM241.044 151.376L241.843 150.775L241.136 149.835L240.322 150.684L241.044 151.376ZM239.005 153.503L238.283 152.811L238.005 153.101V153.503H239.005ZM239.005 160.183V161.183H240.005V160.183H239.005ZM235.753 160.183H234.753V161.183H235.753V160.183ZM235.753 133.183V132.183H234.753V133.183H235.753ZM239.005 133.183H240.005V132.183H239.005V133.183ZM239.005 149.513H238.005V152.279L239.774 150.153L239.005 149.513ZM240.745 147.421L240.019 146.734L239.997 146.757L239.977 146.782L240.745 147.421ZM246.669 141.163V140.163H246.239L245.943 140.476L246.669 141.163ZM250.624 141.163L251.356 141.845L252.922 140.163H250.624V141.163ZM243.224 149.109L242.492 148.427L241.923 149.038L242.422 149.707L243.224 149.109ZM251.486 160.183V161.183H253.479L252.287 159.585L251.486 160.183ZM247.671 160.183L246.872 160.784L247.172 161.183H247.671V160.183ZM240.322 150.684L238.283 152.811L239.727 154.195L241.766 152.068L240.322 150.684ZM238.005 153.503V160.183H240.005V153.503H238.005ZM239.005 159.183H235.753V161.183H239.005V159.183ZM236.753 160.183V133.183H234.753V160.183H236.753ZM235.753 134.183H239.005V132.183H235.753V134.183ZM238.005 133.183V149.513H240.005V133.183H238.005ZM239.774 150.153L241.514 148.061L239.977 146.782L238.236 148.873L239.774 150.153ZM241.472 148.109L247.395 141.851L245.943 140.476L240.019 146.734L241.472 148.109ZM246.669 142.163H250.624V140.163H246.669V142.163ZM249.893 140.482L242.492 148.427L243.956 149.79L251.356 141.845L249.893 140.482ZM242.422 149.707L250.684 160.781L252.287 159.585L244.025 148.511L242.422 149.707ZM251.486 159.183H247.671V161.183H251.486V159.183ZM248.47 159.582L241.843 150.775L240.245 151.978L246.872 160.784L248.47 159.582ZM265.724 160.183L264.829 160.63L265.106 161.183H265.724V160.183ZM265.267 158.179L266.259 158.058L266.005 155.97L264.546 157.485L265.267 158.179ZM255.23 158.952L254.564 159.699L254.572 159.705L255.23 158.952ZM255.687 150.304L256.275 151.113L256.276 151.112L255.687 150.304ZM265.214 148.652V149.652H266.214V148.652H265.214ZM264.195 144.451L263.487 145.158L263.494 145.164L264.195 144.451ZM257.093 146.437V147.437H258.093V146.437H257.093ZM253.823 146.437H252.823V147.437H253.823V146.437ZM254.825 143.695L254.03 143.088L254.029 143.09L254.825 143.695ZM257.568 141.585L257.161 140.671L257.158 140.673L257.568 141.585ZM266.532 142.464L265.869 143.212L265.873 143.216L266.532 142.464ZM268.466 146.982H269.466V146.97L269.466 146.957L268.466 146.982ZM269.134 159.902H270.134V159.695L270.052 159.505L269.134 159.902ZM269.134 160.183V161.183H270.134V160.183H269.134ZM265.214 154.857L266.113 155.294L266.214 155.087V154.857H265.214ZM265.214 150.954H266.214V149.954H265.214V150.954ZM266.618 159.736C266.515 159.529 266.376 159.015 266.259 158.058L264.274 158.3C264.392 159.265 264.558 160.087 264.829 160.63L266.618 159.736ZM264.546 157.485C263.215 158.869 261.667 159.534 259.853 159.534V161.534C262.234 161.534 264.295 160.63 265.987 158.873L264.546 157.485ZM259.853 159.534C258.176 159.534 256.882 159.068 255.888 158.199L254.572 159.705C255.991 160.946 257.779 161.534 259.853 161.534V159.534ZM255.895 158.206C254.917 157.333 254.437 156.259 254.437 154.909H252.437C252.437 156.818 253.152 158.439 254.564 159.699L255.895 158.206ZM254.437 154.909C254.437 153.224 255.054 152 256.275 151.113L255.099 149.495C253.32 150.788 252.437 152.634 252.437 154.909H254.437ZM256.276 151.112C257.554 150.181 259.438 149.652 262.05 149.652V147.652C259.201 147.652 256.843 148.224 255.098 149.496L256.276 151.112ZM262.05 149.652H265.214V147.652H262.05V149.652ZM266.214 148.652V147.158H264.214V148.652H266.214ZM266.214 147.158C266.214 145.808 265.803 144.629 264.896 143.737L263.494 145.164C263.946 145.608 264.214 146.233 264.214 147.158H266.214ZM264.902 143.743C263.973 142.814 262.676 142.431 261.189 142.431V144.431C262.35 144.431 263.057 144.727 263.487 145.158L264.902 143.743ZM261.189 142.431C259.854 142.431 258.661 142.771 257.673 143.508L258.869 145.111C259.451 144.677 260.203 144.431 261.189 144.431V142.431ZM257.673 143.508C256.685 144.245 256.093 145.231 256.093 146.437H258.093C258.093 145.979 258.286 145.546 258.869 145.111L257.673 143.508ZM257.093 145.437H253.823V147.437H257.093V145.437ZM254.823 146.437C254.823 145.741 255.063 145.034 255.622 144.3L254.029 143.09C253.251 144.113 252.823 145.235 252.823 146.437H254.823ZM255.62 144.301C256.187 143.559 256.962 142.954 257.977 142.498L257.158 140.673C255.877 141.248 254.823 142.049 254.03 143.088L255.62 144.301ZM257.974 142.499C258.995 142.045 260.127 141.812 261.382 141.812V139.812C259.872 139.812 258.461 140.094 257.161 140.671L257.974 142.499ZM261.382 141.812C263.409 141.812 264.862 142.319 265.869 143.212L267.196 141.716C265.719 140.406 263.738 139.812 261.382 139.812V141.812ZM265.873 143.216C266.87 144.091 267.425 145.314 267.466 147.006L269.466 146.957C269.413 144.806 268.679 143.017 267.192 141.712L265.873 143.216ZM267.466 146.982V155.736H269.466V146.982H267.466ZM267.466 155.736C267.466 157.55 267.695 159.092 268.216 160.298L270.052 159.505C269.682 158.649 269.466 157.413 269.466 155.736H267.466ZM268.134 159.902V160.183H270.134V159.902H268.134ZM269.134 159.183H265.724V161.183H269.134V159.183ZM260.327 158.704C261.529 158.704 262.667 158.391 263.728 157.78L262.728 156.047C261.96 156.49 261.165 156.704 260.327 156.704V158.704ZM263.728 157.78C264.792 157.165 265.605 156.339 266.113 155.294L264.315 154.42C264.003 155.062 263.491 155.607 262.728 156.047L263.728 157.78ZM266.214 154.857V150.954H264.214V154.857H266.214ZM265.214 149.954H262.665V151.954H265.214V149.954ZM262.665 149.954C260.608 149.954 258.902 150.25 257.678 150.966C256.371 151.731 255.689 152.936 255.689 154.452H257.689C257.689 153.637 258.002 153.093 258.688 152.692C259.456 152.242 260.738 151.954 262.665 151.954V149.954ZM255.689 154.452C255.689 155.718 256.124 156.814 257.063 157.607L258.354 156.079C257.933 155.724 257.689 155.225 257.689 154.452H255.689ZM257.063 157.607C257.957 158.363 259.074 158.704 260.327 158.704V156.704C259.448 156.704 258.819 156.472 258.354 156.079L257.063 157.607ZM277.976 136.558H278.976V135.558H277.976V136.558ZM277.976 141.163H276.976V142.163H277.976V141.163ZM281.527 141.163H282.527V140.163H281.527V141.163ZM281.527 143.677V144.677H282.527V143.677H281.527ZM277.976 143.677V142.677H276.976V143.677H277.976ZM278.45 157.195L277.676 157.828L277.681 157.834L277.686 157.84L278.45 157.195ZM281.615 157.546H282.615V156.309L281.405 156.568L281.615 157.546ZM281.615 160.183L281.879 161.147L282.615 160.946V160.183H281.615ZM274.724 143.677H275.724V142.677H274.724V143.677ZM271.261 143.677H270.261V144.677H271.261V143.677ZM271.261 141.163V140.163H270.261V141.163H271.261ZM274.724 141.163V142.163H275.724V141.163H274.724ZM274.724 136.558V135.558H273.724V136.558H274.724ZM276.976 136.558V141.163H278.976V136.558H276.976ZM277.976 142.163H281.527V140.163H277.976V142.163ZM280.527 141.163V143.677H282.527V141.163H280.527ZM281.527 142.677H277.976V144.677H281.527V142.677ZM276.976 143.677V155.472H278.976V143.677H276.976ZM276.976 155.472C276.976 156.349 277.154 157.19 277.676 157.828L279.224 156.561C279.114 156.426 278.976 156.118 278.976 155.472H276.976ZM277.686 157.84C278.277 158.54 279.174 158.757 280.068 158.757V156.757C279.438 156.757 279.256 156.599 279.215 156.55L277.686 157.84ZM280.068 158.757C280.548 158.757 281.144 158.67 281.824 158.524L281.405 156.568C280.773 156.704 280.338 156.757 280.068 156.757V158.757ZM280.615 157.546V160.183H282.615V157.546H280.615ZM281.35 159.218C280.573 159.432 279.83 159.534 279.118 159.534V161.534C280.024 161.534 280.945 161.403 281.879 161.147L281.35 159.218ZM279.118 159.534C277.876 159.534 277.097 159.168 276.597 158.573L275.066 159.859C276.043 161.022 277.455 161.534 279.118 161.534V159.534ZM276.597 158.573C276.062 157.936 275.724 156.949 275.724 155.472H273.724C273.724 157.229 274.124 158.739 275.066 159.859L276.597 158.573ZM275.724 155.472V143.677H273.724V155.472H275.724ZM274.724 142.677H271.261V144.677H274.724V142.677ZM272.261 143.677V141.163H270.261V143.677H272.261ZM271.261 142.163H274.724V140.163H271.261V142.163ZM275.724 141.163V136.558H273.724V141.163H275.724ZM274.724 137.558H277.976V135.558H274.724V137.558ZM285.218 145.47L284.322 145.026L284.319 145.031L285.218 145.47ZM288.277 142.025L287.752 141.173L287.749 141.175L288.277 142.025ZM299.034 143.501L298.287 144.166L298.289 144.168L299.034 143.501ZM300.37 155.876L299.47 155.441L299.469 155.444L300.37 155.876ZM297.329 159.304L296.803 158.454L296.799 158.456L297.329 159.304ZM286.519 157.845L285.771 158.509L285.774 158.512L286.519 157.845ZM288.857 155.964L288.061 156.57L288.065 156.575L288.857 155.964ZM296.732 155.947L297.53 156.549L297.533 156.545L296.732 155.947ZM296.697 145.435L295.899 146.038L295.905 146.046L296.697 145.435ZM285.128 150.497C285.128 148.767 285.465 147.244 286.117 145.909L284.319 145.031C283.518 146.672 283.128 148.501 283.128 150.497H285.128ZM286.114 145.914C286.777 144.578 287.675 143.576 288.805 142.874L287.749 141.175C286.277 142.09 285.136 143.385 284.322 145.026L286.114 145.914ZM288.801 142.876C289.942 142.173 291.252 141.812 292.759 141.812V139.812C290.915 139.812 289.236 140.259 287.752 141.173L288.801 142.876ZM292.759 141.812C295.089 141.812 296.899 142.605 298.287 144.166L299.782 142.837C297.982 140.812 295.609 139.812 292.759 139.812V141.812ZM298.289 144.168C299.694 145.737 300.443 147.864 300.443 150.656H302.443C302.443 147.494 301.586 144.851 299.779 142.834L298.289 144.168ZM300.443 150.656V150.884H302.443V150.656H300.443ZM300.443 150.884C300.443 152.604 300.111 154.116 299.47 155.441L301.27 156.312C302.059 154.683 302.443 152.867 302.443 150.884H300.443ZM299.469 155.444C298.845 156.744 297.958 157.739 296.803 158.454L297.856 160.154C299.35 159.229 300.49 157.938 301.272 156.309L299.469 155.444ZM296.799 158.456C295.662 159.167 294.338 159.534 292.794 159.534V161.534C294.672 161.534 296.371 161.082 297.859 160.152L296.799 158.456ZM292.794 159.534C290.478 159.534 288.665 158.743 287.264 157.178L285.774 158.512C287.584 160.533 289.955 161.534 292.794 161.534V159.534ZM287.266 157.181C285.871 155.611 285.128 153.493 285.128 150.726H283.128C283.128 153.865 283.98 156.494 285.771 158.509L287.266 157.181ZM285.128 150.726V150.497H283.128V150.726H285.128ZM286.398 150.884C286.398 153.144 286.92 155.071 288.061 156.57L289.652 155.358C288.849 154.303 288.398 152.843 288.398 150.884H286.398ZM288.065 156.575C289.242 158.103 290.85 158.88 292.794 158.88V156.88C291.457 156.88 290.44 156.38 289.649 155.354L288.065 156.575ZM292.794 158.88C294.752 158.88 296.363 158.095 297.53 156.549L295.933 155.344C295.155 156.376 294.141 156.88 292.794 156.88V158.88ZM297.533 156.545C298.68 155.011 299.191 152.954 299.191 150.497H297.191C297.191 152.704 296.729 154.281 295.931 155.348L297.533 156.545ZM299.191 150.497C299.191 148.253 298.653 146.331 297.488 144.823L295.905 146.046C296.732 147.116 297.191 148.57 297.191 150.497H299.191ZM297.494 144.831C296.319 143.279 294.711 142.484 292.759 142.484V144.484C294.089 144.484 295.105 144.989 295.899 146.038L297.494 144.831ZM292.759 142.484C290.842 142.484 289.255 143.268 288.082 144.789L289.666 146.01C290.462 144.977 291.465 144.484 292.759 144.484V142.484ZM288.082 144.789C286.912 146.307 286.398 148.385 286.398 150.884H288.398C288.398 148.625 288.868 147.047 289.666 146.01L288.082 144.789ZM308.597 141.163L309.596 141.119L309.554 140.163H308.597V141.163ZM308.702 143.554L307.703 143.598L307.821 146.27L309.485 144.176L308.702 143.554ZM320.48 147.615L321.48 147.615L321.48 147.607L320.48 147.615ZM320.48 160.183V161.183H321.48V160.183H320.48ZM317.228 160.183H316.228V161.183H317.228V160.183ZM317.228 147.597H318.228L318.228 147.588L317.228 147.597ZM316.279 144.556L315.546 145.236L315.552 145.243L316.279 144.556ZM308.773 146.63L307.874 146.192L307.773 146.4V146.63H308.773ZM308.773 160.183V161.183H309.773V160.183H308.773ZM305.521 160.183H304.521V161.183H305.521V160.183ZM305.521 141.163V140.163H304.521V141.163H305.521ZM307.598 141.207L307.703 143.598L309.701 143.51L309.596 141.119L307.598 141.207ZM309.485 144.176C310.748 142.588 312.358 141.812 314.398 141.812V139.812C311.75 139.812 309.563 140.864 307.92 142.932L309.485 144.176ZM314.398 141.812C316.219 141.812 317.419 142.32 318.187 143.179C318.975 144.06 319.463 145.482 319.48 147.622L321.48 147.607C321.461 145.212 320.918 143.232 319.678 141.846C318.419 140.437 316.596 139.812 314.398 139.812V141.812ZM319.48 147.615V160.183H321.48V147.615H319.48ZM320.48 159.183H317.228V161.183H320.48V159.183ZM318.228 160.183V147.597H316.228V160.183H318.228ZM318.228 147.588C318.215 146.092 317.871 144.784 317.005 143.869L315.552 145.243C315.928 145.641 316.217 146.36 316.228 147.606L318.228 147.588ZM317.011 143.876C316.141 142.938 314.865 142.572 313.413 142.572V144.572C314.563 144.572 315.198 144.862 315.546 145.236L317.011 143.876ZM313.413 142.572C312.17 142.572 311.039 142.907 310.059 143.598L311.213 145.232C311.827 144.799 312.547 144.572 313.413 144.572V142.572ZM310.059 143.598C309.119 144.262 308.39 145.133 307.874 146.192L309.672 147.068C310.046 146.299 310.559 145.693 311.213 145.232L310.059 143.598ZM307.773 146.63V160.183H309.773V146.63H307.773ZM308.773 159.183H305.521V161.183H308.773V159.183ZM306.521 160.183V141.163H304.521V160.183H306.521ZM305.521 142.163H308.597V140.163H305.521V142.163Z" fill="black"/>
</g>
<path d="M107.098 188.588C107.098 193.32 102.317 197.326 96.1865 197.326C90.0563 197.326 85.2749 193.32 85.2749 188.588C85.2749 183.856 90.0563 179.85 96.1865 179.85C102.317 179.85 107.098 183.856 107.098 188.588Z" fill="#FFEAEA" stroke="black"/>
<circle cx="95.6431" cy="188.045" r="3.26045" fill="#594747"/>
<g style="mix-blend-mode:color-burn" opacity="0.39">
<path d="M116.017 290.215C57.4986 300.774 124.639 268.115 95.0099 254.607C80.6585 248.065 123.357 246.923 125.5 248.871C128.178 251.306 213.419 236.939 143.745 248.871C74.0707 260.804 221.765 247.44 132.5 264C43.2345 280.56 200.794 252.132 273.748 245.467C346.702 238.802 245.849 251.687 176.648 268.115C121.288 281.256 209.286 273.033 260.206 267.279C231.649 271.404 162.832 281.768 116.017 290.215Z" fill="#9A8C8C"/>
</g>
<path d="M68.1 211.733L73.5 221.5L38 211L70.5 219.5L68.1 211.733Z" fill="#9A8C8C"/>
<defs>
<filter id="filter0_d_1_39" x="0" y="0" width="360" height="360" filterUnits="userSpaceOnUse" color-interpolation-filters="sRGB">
<feFlood flood-opacity="0" result="BackgroundImageFix"/>
<feColorMatrix in="SourceAlpha" type="matrix" values="0 0 0 0 0 0 0 0 0 0 0 0 0 0 0 0 0 0 127 0" result="hardAlpha"/>
<feOffset dy="4"/>
<feGaussianBlur stdDeviation="2"/>
<feComposite in2="hardAlpha" operator="out"/>
<feColorMatrix type="matrix" values="0 0 0 0 0 0 0 0 0 0 0 0 0 0 0 0 0 0 0.25 0"/>
<feBlend mode="normal" in2="BackgroundImageFix" result="effect1_dropShadow_1_39"/>
<feBlend mode="normal" in="SourceGraphic" in2="effect1_dropShadow_1_39" result="shape"/>
</filter>
<filter id="filter1_bd_1_39" x="184.31" y="129.183" width="140.17" height="39.3516" filterUnits="userSpaceOnUse" color-interpolation-filters="sRGB">
<feFlood flood-opacity="0" result="BackgroundImageFix"/>
<feGaussianBlur in="BackgroundImage" stdDeviation="2"/>
<feComposite in2="SourceAlpha" operator="in" result="effect1_backgroundBlur_1_39"/>
<feColorMatrix in="SourceAlpha" type="matrix" values="0 0 0 0 0 0 0 0 0 0 0 0 0 0 0 0 0 0 127 0" result="hardAlpha"/>
<feOffset dy="4"/>
<feGaussianBlur stdDeviation="2"/>
<feComposite in2="hardAlpha" operator="out"/>
<feColorMatrix type="matrix" values="0 0 0 0 0 0 0 0 0 0 0 0 0 0 0 0 0 0 0.15 0"/>
<feBlend mode="normal" in2="effect1_backgroundBlur_1_39" result="effect2_dropShadow_1_39"/>
<feBlend mode="normal" in="SourceGraphic" in2="effect2_dropShadow_1_39" result="shape"/>
</filter>
</defs>
</svg>
