<svg width="316" height="253" viewBox="0 0 316 253" fill="none" xmlns="http://www.w3.org/2000/svg">
<path d="M72.7299 119L0 155.63L41.781 168.205C32.4963 175.859 24.7591 204.836 59.8345 204.836C95.9747 204.836 17.0219 252.947 89.7518 238.186C147.936 226.376 233.664 211.032 269.255 204.836C205.638 214.312 95.5289 229.001 164.029 211.943C249.654 190.621 375.513 170.392 284.214 182.42C192.915 194.448 38.6861 221.784 149.586 198.822C260.487 175.859 34.0438 212.49 120.701 195.541C207.358 178.593 99.5523 192.261 95.9416 190.074C93.053 188.324 90.9554 147.976 87.6885 132.668C79.6074 129.388 74.7932 122.936 72.7299 119Z" fill="#FFEAEA"/>
<path d="M55.2498 169.322L65.209 197.167C46.1897 205.318 39.4214 194.517 39.1254 190.646C37.4952 169.322 54.3013 169.322 55.2498 169.322Z" fill="#F55E2E"/>
<path d="M50.4784 161.839C46.3615 166.273 41.8331 194.356 59.5353 198.051C73.6972 201.007 67.9062 170.954 63.2405 155.927C59.212 156.891 57.8886 150.015 50.5105 161.687C50.4962 161.738 50.5033 161.812 50.4784 161.839Z" fill="#FFEAEA"/>
<ellipse cx="68.5" cy="131" rx="13.5" ry="11" fill="#FFEAEA"/>
<path d="M75.5338 95.0061C76.2583 97.7231 78.9029 103.483 83.6849 104.787C88.4669 106.092 85.8585 76.5302 75.5338 95.0061Z" fill="#EC3636"/>
<path d="M83.6849 102.308C85.0398 107.502 89.9854 118.516 98.9282 121.009C107.871 123.503 102.993 66.9824 83.6849 102.308Z" fill="#EC3636"/>
<path d="M93.1276 103.497C93.7172 111.528 98.0255 129.117 110.542 135.222C123.058 141.326 131.196 56.6208 93.1276 103.497Z" fill="#EC3636"/>
<path d="M39 82C46.4082 34.5 217.923 -2.68036 249.984 1.21277L240.269 23.5983C185.862 33.6555 69.0063 61.144 74.447 92.289C79.8876 123.434 209.179 138.77 268.444 142.339L240.269 175.43C152.182 166.022 30.5 136.5 39 82Z" fill="#EC3636" stroke="black"/>
<path d="M47.5 136L9.23795 155.324H42.9293L47.5 136Z" fill="#E2C662"/>
<path d="M9.23795 155.324L49.4502 167.279L42.9293 155.324H9.23795Z" fill="#E2C662"/>
<path d="M9.23795 155.324L47.5 136L42.9293 155.324M9.23795 155.324L49.4502 167.279L42.9293 155.324M9.23795 155.324H42.9293" stroke="#BB822C"/>
<path d="M82.0981 133.588C82.0981 138.32 77.3167 142.326 71.1865 142.326C65.0563 142.326 60.2749 138.32 60.2749 133.588C60.2749 128.856 65.0563 124.85 71.1865 124.85C77.3167 124.85 82.0981 128.856 82.0981 133.588Z" fill="#FFEAEA" stroke="black"/>
<circle cx="70.6431" cy="133.045" r="3.26045" fill="#594747"/>
<g style="mix-blend-mode:color-burn" opacity="0.39">
<path d="M91.017 235.215C32.4986 245.774 99.6395 213.115 70.0099 199.607C55.6585 193.065 98.3574 191.923 100.5 193.871C103.178 196.306 188.419 181.939 118.745 193.871C49.0707 205.804 196.765 192.44 107.5 209C18.2345 225.56 175.794 197.132 248.748 190.467C321.702 183.802 220.849 196.687 151.648 213.115C96.288 226.256 184.286 218.033 235.206 212.279C206.649 216.404 137.832 226.768 91.017 235.215Z" fill="#9A8C8C"/>
</g>
<path d="M43.1 156.733L48.5 166.5L13 156L45.5 164.5L43.1 156.733Z" fill="#9A8C8C"/>
</svg>
